<svg width="100%" height="100%" id="svg" viewBox="0 0 1440 700"
    xmlns="http://www.w3.org/2000/svg" class="transition duration-300 ease-in-out delay-150">
    <defs>
        <linearGradient id="gradient" x1="0%" y1="50%" x2="100%" y2="50%">
            <stop offset="5%" stop-color="#002bdc44"></stop>
            <stop offset="95%" stop-color="#32ded444"></stop>
        </linearGradient>
    </defs>
    <path d="M 0,700 C 0,700 0,140 0,140 C 31.38967521900271,139.81633697467237 62.77935043800542,139.6326739493447 112,134 C 161.22064956199458,128.3673260506553 228.27227346698095,117.2856411772935 278,121 C 327.72772653301905,124.7143588227065 360.1315556940708,143.22476134148135 392,158 C 423.8684443059292,172.77523865851865 455.20150375673563,183.81531345678115 503,179 C 550.7984962432644,174.18468654321885 615.0624292789865,153.513984831394 660,131 C 704.9375707210135,108.48601516860599 730.548779127318,84.12874721764277 769,89 C 807.451220872682,93.87125278235723 858.7424542117409,127.97102629803493 914,141 C 969.2575457882591,154.02897370196507 1028.4814040257188,145.98714759021746 1071,137 C 1113.5185959742812,128.01285240978254 1139.3319296853833,118.08038334109531 1172,129 C 1204.6680703146167,139.9196166589047 1244.1908772327477,171.69131904540134 1290,177 C 1335.8091227672523,182.30868095459866 1387.904561383626,161.15434047729934 1440,140 C 1440,140 1440,700 1440,700 Z" stroke="none" stroke-width="0" fill="url(#gradient)" class="transition-all duration-300 ease-in-out delay-150 path-0"></path>
    <defs>
        <linearGradient id="gradient" x1="0%" y1="50%" x2="100%" y2="50%">
            <stop offset="5%" stop-color="#002bdc66"></stop>
            <stop offset="95%" stop-color="#32ded466"></stop>
        </linearGradient>
    </defs>
    <path d="M 0,700 C 0,700 0,280 0,280 C 47.95870866749658,302.15215709051756 95.91741733499316,324.3043141810352 139,307 C 182.08258266500684,289.6956858189648 220.28903932752394,232.9349003663769 260,232 C 299.71096067247606,231.0650996336231 340.9264253549111,285.95608435345724 391,292 C 441.0735746450889,298.04391564654276 500.00525925283193,255.24076221979425 540,254 C 579.9947407471681,252.75923778020575 601.0525376337611,293.0808667673657 637,293 C 672.9474623662389,292.9191332326343 723.7845902121232,252.43577071074284 773,237 C 822.2154097878768,221.56422928925716 869.8091015177461,231.17605038966286 916,237 C 962.1908984822539,242.82394961033714 1006.9790037168927,244.8600277306058 1053,259 C 1099.0209962831073,273.1399722693942 1146.2748836146827,299.3838386879138 1186,306 C 1225.7251163853173,312.6161613120862 1257.9214618243764,299.6046175177389 1299,292 C 1340.0785381756236,284.3953824822611 1390.0392690878118,282.19769124113054 1440,280 C 1440,280 1440,700 1440,700 Z" stroke="none" stroke-width="0" fill="url(#gradient)" class="transition-all duration-300 ease-in-out delay-150 path-1"></path>
    <defs>
        <linearGradient id="gradient" x1="0%" y1="50%" x2="100%" y2="50%">
            <stop offset="5%" stop-color="#002bdc88"></stop>
            <stop offset="95%" stop-color="#32ded488"></stop>
        </linearGradient>
    </defs>
    <path d="M 0,700 C 0,700 0,420 0,420 C 46.67226000896021,424.4355086334974 93.34452001792042,428.8710172669948 131,439 C 168.65547998207958,449.1289827330052 197.2941799372785,464.9514395655184 245,452 C 292.7058200627215,439.0485604344816 359.47876023296544,397.32322447093156 404,382 C 448.52123976703456,366.67677552906844 470.79077913085985,377.75566255075535 507,385 C 543.2092208691402,392.24433744924465 593.3581232435953,395.6541253260471 634,405 C 674.6418767564047,414.3458746739529 705.7767278947583,429.62783614505616 761,415 C 816.2232721052417,400.37216385494384 895.5349651773714,355.83453009372806 939,370 C 982.4650348226286,384.16546990627194 990.083411395756,457.0340434800316 1025,458 C 1059.916588604244,458.9659565199684 1122.1313892396042,388.02929598614537 1179,382 C 1235.8686107603958,375.97070401385463 1287.3910316458273,434.84877257538704 1330,452 C 1372.6089683541727,469.15122742461296 1406.3044841770864,444.57561371230645 1440,420 C 1440,420 1440,700 1440,700 Z" stroke="none" stroke-width="0" fill="url(#gradient)" class="transition-all duration-300 ease-in-out delay-150 path-2"></path>
    <defs>
        <linearGradient id="gradient" x1="0%" y1="50%" x2="100%" y2="50%">
            <stop offset="5%" stop-color="#002bdcff"></stop>
            <stop offset="95%" stop-color="#32ded4ff"></stop>
        </linearGradient>
    </defs>
    <path d="M 0,700 C 0,700 0,560 0,560 C 45.0277748756461,557.8605890717331 90.0555497512922,555.7211781434661 139,552 C 187.9444502487078,548.2788218565339 240.80557587047718,542.9758764978689 281,541 C 321.1944241295228,539.0241235021311 348.7221467667991,540.3753158650586 381,544 C 413.2778532332009,547.6246841349414 450.30583706232653,553.5228600418968 499,565 C 547.6941629376735,576.4771399581032 608.0545049838946,593.5332439673537 659,578 C 709.9454950161054,562.4667560326463 751.4761430020948,514.3441640886883 786,512 C 820.5238569979052,509.6558359113116 848.0409230077261,553.090099677893 894,567 C 939.9590769922739,580.909900322107 1004.3601649670011,565.2954371997399 1058,571 C 1111.639835032999,576.7045628002601 1154.518417124269,603.728151523147 1197,595 C 1239.481582875731,586.271848476853 1281.5661665359232,541.7919567076723 1322,530 C 1362.4338334640768,518.2080432923277 1401.2169167320385,539.1040216461638 1440,560 C 1440,560 1440,700 1440,700 Z" stroke="none" stroke-width="0" fill="url(#gradient)" class="transition-all duration-300 ease-in-out delay-150 path-3"></path>
</svg>